<mxfile host="65bd71144e">
    <diagram id="KnxmgnudgqGiJWSHdmvA" name="Page-1">
        <mxGraphModel dx="699" dy="540" grid="1" gridSize="10" guides="1" tooltips="1" connect="1" arrows="1" fold="1" page="1" pageScale="1" pageWidth="1200" pageHeight="1920" math="0" shadow="0">
            <root>
                <mxCell id="0"/>
                <mxCell id="1" parent="0"/>
                <mxCell id="42" value="" style="edgeStyle=none;html=1;fontSize=16;" edge="1" parent="1" source="2" target="40">
                    <mxGeometry relative="1" as="geometry"/>
                </mxCell>
                <mxCell id="2" value="应用层&lt;div&gt;Application Layer&lt;/div&gt;" style="rounded=0;whiteSpace=wrap;html=1;fontSize=16;fillColor=#FFE6CC;" parent="1" vertex="1">
                    <mxGeometry x="201" y="200" width="239" height="60" as="geometry"/>
                </mxCell>
                <mxCell id="3" value="表示层&lt;div&gt;Presentation Layer&lt;/div&gt;" style="rounded=0;whiteSpace=wrap;html=1;fontSize=16;fillColor=#FFE6CC;" parent="1" vertex="1">
                    <mxGeometry x="201" y="260" width="239" height="60" as="geometry"/>
                </mxCell>
                <mxCell id="4" value="会话层&lt;div&gt;Session Layer&lt;/div&gt;" style="rounded=0;whiteSpace=wrap;html=1;fontSize=16;fillColor=#FFE6CC;" parent="1" vertex="1">
                    <mxGeometry x="201" y="320" width="239" height="60" as="geometry"/>
                </mxCell>
                <mxCell id="5" value="传输层&lt;div&gt;Transport Layer&lt;/div&gt;" style="rounded=0;whiteSpace=wrap;html=1;fontSize=16;fillColor=#FFE6CC;" parent="1" vertex="1">
                    <mxGeometry x="201" y="380" width="239" height="60" as="geometry"/>
                </mxCell>
                <mxCell id="6" value="网络层&lt;div&gt;Network Layer&lt;/div&gt;" style="rounded=0;whiteSpace=wrap;html=1;fontSize=16;fillColor=#FFE6CC;" parent="1" vertex="1">
                    <mxGeometry x="201" y="440" width="239" height="80" as="geometry"/>
                </mxCell>
                <mxCell id="7" value="数据链路层&lt;div&gt;Data Link Layer&lt;/div&gt;" style="rounded=0;whiteSpace=wrap;html=1;fontSize=16;fillColor=#FFE6CC;" parent="1" vertex="1">
                    <mxGeometry x="201" y="520" width="239" height="60" as="geometry"/>
                </mxCell>
                <mxCell id="8" value="物理层&lt;div&gt;Physical Layer&lt;/div&gt;" style="rounded=0;whiteSpace=wrap;html=1;fontSize=16;fillColor=#FFE6CC;" parent="1" vertex="1">
                    <mxGeometry x="201" y="580" width="239" height="60" as="geometry"/>
                </mxCell>
                <mxCell id="12" value="应用层" style="rounded=0;whiteSpace=wrap;html=1;fontSize=16;fillColor=#99FFFF;fontColor=#000000;" parent="1" vertex="1">
                    <mxGeometry x="440" y="200" width="240" height="180" as="geometry"/>
                </mxCell>
                <mxCell id="15" value="传输层" style="rounded=0;whiteSpace=wrap;html=1;fontSize=16;fillColor=#99FFFF;fontColor=#000000;" parent="1" vertex="1">
                    <mxGeometry x="440" y="380" width="240" height="60" as="geometry"/>
                </mxCell>
                <mxCell id="16" value="&lt;font&gt;网络层&lt;/font&gt;" style="rounded=0;whiteSpace=wrap;html=1;fontSize=16;fillColor=#99FFFF;fontColor=#000000;" parent="1" vertex="1">
                    <mxGeometry x="440" y="440" width="240" height="80" as="geometry"/>
                </mxCell>
                <mxCell id="18" value="&lt;font&gt;网络接口层&lt;/font&gt;&lt;div&gt;网际接入层&lt;/div&gt;" style="rounded=0;whiteSpace=wrap;html=1;fontSize=16;fillColor=#99FFFF;fontColor=#000000;" parent="1" vertex="1">
                    <mxGeometry x="440" y="520" width="240" height="120" as="geometry"/>
                </mxCell>
                <mxCell id="39" value="&lt;span style=&quot;font-size: 18px;&quot;&gt;&lt;b&gt;OSI 与 TCP/IP 模型对和协议层次&lt;/b&gt;&lt;/span&gt;" style="text;html=1;align=center;verticalAlign=middle;resizable=0;points=[];autosize=1;strokeColor=none;fillColor=none;" parent="1" vertex="1">
                    <mxGeometry x="430" y="90" width="290" height="40" as="geometry"/>
                </mxCell>
                <mxCell id="40" value="&lt;span&gt;&lt;font style=&quot;color: rgb(255, 255, 255);&quot;&gt;OSI七层网络模型&lt;/font&gt;&lt;/span&gt;" style="rounded=0;whiteSpace=wrap;html=1;fontSize=16;fillColor=#0066CC;fontStyle=0" vertex="1" parent="1">
                    <mxGeometry x="201" y="140" width="239" height="60" as="geometry"/>
                </mxCell>
                <mxCell id="41" value="&lt;span&gt;&lt;font style=&quot;color: rgb(255, 255, 255);&quot;&gt;OSI七层网络模型&lt;/font&gt;&lt;/span&gt;" style="rounded=0;whiteSpace=wrap;html=1;fontSize=16;fillColor=#0066CC;fontStyle=0" vertex="1" parent="1">
                    <mxGeometry x="440" y="140" width="240" height="60" as="geometry"/>
                </mxCell>
                <mxCell id="45" value="&lt;span&gt;&lt;font style=&quot;color: rgb(255, 255, 255);&quot;&gt;对应网络协议&lt;/font&gt;&lt;/span&gt;" style="rounded=0;whiteSpace=wrap;html=1;fontSize=16;fillColor=#0066CC;fontStyle=0" vertex="1" parent="1">
                    <mxGeometry x="680" y="140" width="330" height="60" as="geometry"/>
                </mxCell>
                <mxCell id="46" value="&lt;font style=&quot;color: rgb(0, 0, 0);&quot;&gt;HTTP、FTP、TFTP、DHCP、NTP、&lt;/font&gt;&lt;div&gt;&lt;font style=&quot;color: rgb(0, 0, 0);&quot;&gt;POP3、IMAP4、Telnet、SNMP、&lt;/font&gt;&lt;/div&gt;&lt;div&gt;&lt;font style=&quot;color: rgb(0, 0, 0);&quot;&gt;SMTP、DNS、LDAP、SSH&lt;/font&gt;&lt;/div&gt;" style="rounded=0;whiteSpace=wrap;html=1;fontSize=16;fillColor=#CCFFCC;fontColor=#000000;" vertex="1" parent="1">
                    <mxGeometry x="680" y="200" width="330" height="180" as="geometry"/>
                </mxCell>
                <mxCell id="47" value="TCP、UDP" style="rounded=0;whiteSpace=wrap;html=1;fontSize=16;fillColor=#CCFFCC;fontColor=#000000;" vertex="1" parent="1">
                    <mxGeometry x="680" y="380" width="330" height="60" as="geometry"/>
                </mxCell>
                <mxCell id="48" value="&lt;font style=&quot;color: rgb(0, 0, 0);&quot;&gt;IP、ICMP&lt;span&gt;、ARP&lt;/span&gt;&lt;span&gt;、RARP&lt;/span&gt;&lt;span&gt;、OSPF&lt;/span&gt;&lt;span&gt;、VRRP&lt;/span&gt;&lt;/font&gt;&lt;div&gt;&lt;font style=&quot;color: rgb(0, 0, 0);&quot;&gt;&lt;span&gt;IGMP&lt;/span&gt;&lt;span style=&quot;background-color: transparent;&quot;&gt;、IS-IS&lt;/span&gt;&lt;span style=&quot;background-color: transparent;&quot;&gt;、IPSec&lt;/span&gt;&lt;span style=&quot;background-color: transparent;&quot;&gt;、GRE&lt;/span&gt;&lt;/font&gt;&lt;/div&gt;" style="rounded=0;whiteSpace=wrap;html=1;fontSize=16;fillColor=#CCFFCC;fontColor=#000000;" vertex="1" parent="1">
                    <mxGeometry x="680" y="440" width="330" height="80" as="geometry"/>
                </mxCell>
                <mxCell id="49" value="PPP、PPTP、以太网" style="rounded=0;whiteSpace=wrap;html=1;fontSize=16;fillColor=#CCFFCC;fontColor=#000000;" vertex="1" parent="1">
                    <mxGeometry x="680" y="520" width="330" height="120" as="geometry"/>
                </mxCell>
            </root>
        </mxGraphModel>
    </diagram>
</mxfile>